<svg width="52" height="52" viewBox="0 0 52 52" fill="none" xmlns="http://www.w3.org/2000/svg">
<path d="M26.6529 28.2879C26.5604 28.2678 26.4655 28.2642 26.3717 28.2782C25.4327 28.1689 24.7243 27.3744 24.7226 26.4293C24.7226 25.9764 24.3554 25.6092 23.9025 25.6092C23.4496 25.6092 23.0824 25.9764 23.0824 26.4293C23.0848 28.0075 24.1404 29.3899 25.6621 29.8076V30.6278C25.6621 31.0807 26.0294 31.4479 26.4823 31.4479C26.9352 31.4479 27.3024 31.0807 27.3024 30.6278V29.8573C29.0588 29.4896 30.2526 27.8538 30.068 26.0689C29.883 24.284 28.3793 22.9277 26.5848 22.9273C25.5564 22.9273 24.7226 22.0935 24.7226 21.0651C24.7226 20.0368 25.5564 19.203 26.5848 19.203C27.6132 19.203 28.4469 20.0368 28.4469 21.0651C28.4469 21.5181 28.8142 21.8853 29.2671 21.8853C29.72 21.8853 30.0872 21.5181 30.0872 21.0651C30.0848 19.408 28.9239 17.9788 27.3024 17.6368V16.8903C27.3024 16.4374 26.9352 16.0702 26.4823 16.0702C26.0294 16.0702 25.6621 16.4374 25.6621 16.8903V17.6869C23.9698 18.149 22.8805 19.7921 23.1136 21.5309C23.3467 23.2697 24.8304 24.5676 26.5848 24.5672C27.5996 24.5672 28.4273 25.3797 28.4457 26.3941C28.4646 27.4084 27.6668 28.251 26.6529 28.2879V28.2879Z" fill="url(#paint0_linear)"/>
<path d="M14.6919 23.8102C14.6919 30.3786 20.0164 35.7031 26.5848 35.7031C33.1531 35.7031 38.4777 30.3786 38.4777 23.8102C38.4777 17.2419 33.1531 11.9174 26.5848 11.9174C20.0196 11.9246 14.6995 17.2451 14.6919 23.8102ZM26.5848 13.5576C32.2473 13.5576 36.8374 18.1477 36.8374 23.8102C36.8374 29.4728 32.2473 34.0629 26.5848 34.0629C20.9223 34.0629 16.3322 29.4728 16.3322 23.8102C16.3386 18.1505 20.9251 13.5641 26.5848 13.5576Z" fill="url(#paint1_linear)"/>
<path d="M42.5204 37.7251L36.0958 40.7606C35.2088 39.1107 33.5073 38.0607 31.6347 38.0078L25.7039 37.8448C24.7648 37.818 23.8433 37.5801 23.0084 37.1488L22.4049 36.8361C19.3149 35.2254 15.6319 35.2294 12.5451 36.8465L12.5828 35.4793C12.5952 35.0264 12.2384 34.6491 11.7855 34.6367L5.28197 34.4577C4.82905 34.4453 4.45221 34.8021 4.4398 35.255L4.04695 49.5267C4.03453 49.9796 4.39134 50.3568 4.84426 50.3692L11.3478 50.5482H11.3702C11.8147 50.5482 12.1783 50.1946 12.1903 49.7505L12.2091 49.0677L13.8987 48.1631C14.5619 47.8063 15.3371 47.7214 16.0616 47.9264L26.1508 50.7581C26.1684 50.7633 26.186 50.7673 26.2041 50.7713C26.9333 50.9239 27.6765 51.0004 28.4214 51C29.9992 51.0008 31.5586 50.6608 32.9927 50.0024C33.0279 49.9864 33.0619 49.9676 33.0944 49.9464L47.7228 40.4843C48.0872 40.2484 48.205 39.7698 47.9915 39.3918C46.9055 37.4648 44.4967 36.7307 42.5204 37.7251V37.7251ZM5.70926 48.7522L6.05686 36.12L10.9205 36.2538L10.5729 48.8863L5.70926 48.7522ZM32.2538 48.5375C30.4722 49.3417 28.4823 49.5635 26.5673 49.1723L16.5053 46.3478C15.3728 46.0278 14.1606 46.1604 13.1246 46.7174L12.2612 47.18L12.4923 38.7811C15.2282 36.9614 18.7371 36.7744 21.6508 38.2925L22.2543 38.6053C23.3091 39.1499 24.4725 39.4503 25.659 39.4847L31.5903 39.6477C33.2562 39.6957 34.671 40.8819 35.009 42.5142L26.1744 42.2703C25.7215 42.2579 25.3447 42.6151 25.3318 43.0676C25.3194 43.5206 25.6766 43.8978 26.1292 43.9102L35.8788 44.1785H35.9016C36.3457 44.1781 36.7089 43.8245 36.721 43.3808C36.731 43.0244 36.7045 42.6676 36.6417 42.3168L43.2313 39.2032C43.2377 39.2004 43.2441 39.1972 43.2505 39.194C44.1852 38.721 45.3153 38.8792 46.0841 39.5908L32.2538 48.5375Z" fill="url(#paint2_linear)"/>
<path d="M27.4047 9.61152V1.82014C27.4047 1.36722 27.0375 1 26.5845 1C26.1316 1 25.7644 1.36722 25.7644 1.82014V9.61152C25.7644 10.0644 26.1316 10.4317 26.5845 10.4317C27.0375 10.4317 27.4047 10.0644 27.4047 9.61152Z" fill="url(#paint3_linear)"/>
<path d="M33.5558 9.6115V5.92085C33.5558 5.46793 33.1886 5.10071 32.7357 5.10071C32.2827 5.10071 31.9155 5.46793 31.9155 5.92085V9.6115C31.9155 10.0644 32.2827 10.4316 32.7357 10.4316C33.1886 10.4316 33.5558 10.0644 33.5558 9.6115Z" fill="url(#paint4_linear)"/>
<path d="M21.2538 9.6115V5.92085C21.2538 5.46793 20.8866 5.10071 20.4337 5.10071C19.9807 5.10071 19.6135 5.46793 19.6135 5.92085V9.6115C19.6135 10.0644 19.9807 10.4316 20.4337 10.4316C20.8866 10.4316 21.2538 10.0644 21.2538 9.6115Z" fill="url(#paint5_linear)"/>
<defs>
<linearGradient id="paint0_linear" x1="23.0823" y1="16.1652" x2="30.2296" y2="16.2317" gradientUnits="userSpaceOnUse">
<stop stop-color="#EB5D56"/>
<stop offset="1" stop-color="#390A40"/>
</linearGradient>
<linearGradient id="paint1_linear" x1="14.6919" y1="12.0643" x2="38.953" y2="12.5595" gradientUnits="userSpaceOnUse">
<stop stop-color="#EB5D56"/>
<stop offset="1" stop-color="#390A40"/>
</linearGradient>
<linearGradient id="paint2_linear" x1="4.04663" y1="34.5596" x2="48.8644" y2="36.9952" gradientUnits="userSpaceOnUse">
<stop stop-color="#EB5D56"/>
<stop offset="1" stop-color="#390A40"/>
</linearGradient>
<linearGradient id="paint3_linear" x1="25.7644" y1="1.05828" x2="27.4381" y2="1.06422" gradientUnits="userSpaceOnUse">
<stop stop-color="#EB5D56"/>
<stop offset="1" stop-color="#390A40"/>
</linearGradient>
<linearGradient id="paint4_linear" x1="31.9155" y1="5.13365" x2="33.5892" y2="5.14416" gradientUnits="userSpaceOnUse">
<stop stop-color="#EB5D56"/>
<stop offset="1" stop-color="#390A40"/>
</linearGradient>
<linearGradient id="paint5_linear" x1="19.6135" y1="5.13365" x2="21.2872" y2="5.14416" gradientUnits="userSpaceOnUse">
<stop stop-color="#EB5D56"/>
<stop offset="1" stop-color="#390A40"/>
</linearGradient>
</defs>
</svg>
